<mxfile host="app.diagrams.net" modified="2023-01-13T01:12:58.748Z" agent="5.0 (X11; Linux x86_64) AppleWebKit/537.36 (KHTML, like Gecko) Chrome/108.0.0.0 Safari/537.36" version="20.8.5" etag="x8P1wo0NxKxIhkp2V1Oc" type="github">
  <diagram id="k76ryEIm_YTQEEgROJZa" name="Page-1">
    <mxGraphModel dx="1360" dy="775" grid="1" gridSize="10" guides="1" tooltips="1" connect="1" arrows="1" fold="1" page="1" pageScale="1" pageWidth="827" pageHeight="1169" math="0" shadow="0">
      <root>
        <mxCell id="0" />
        <mxCell id="1" parent="0" />
        <mxCell id="hdjzuRKUstXomJ2-e3ao-7" style="edgeStyle=orthogonalEdgeStyle;rounded=0;orthogonalLoop=1;jettySize=auto;html=1;exitX=0.5;exitY=1;exitDx=0;exitDy=0;entryX=0.5;entryY=0;entryDx=0;entryDy=0;" edge="1" parent="1" source="hdjzuRKUstXomJ2-e3ao-1" target="hdjzuRKUstXomJ2-e3ao-4">
          <mxGeometry relative="1" as="geometry" />
        </mxCell>
        <mxCell id="hdjzuRKUstXomJ2-e3ao-1" value="Début" style="ellipse;whiteSpace=wrap;html=1;" vertex="1" parent="1">
          <mxGeometry x="354" width="120" height="80" as="geometry" />
        </mxCell>
        <mxCell id="hdjzuRKUstXomJ2-e3ao-9" style="edgeStyle=orthogonalEdgeStyle;rounded=0;orthogonalLoop=1;jettySize=auto;html=1;exitX=0.5;exitY=1;exitDx=0;exitDy=0;entryX=0.5;entryY=0;entryDx=0;entryDy=0;" edge="1" parent="1" source="hdjzuRKUstXomJ2-e3ao-3">
          <mxGeometry relative="1" as="geometry">
            <mxPoint x="414" y="320" as="targetPoint" />
          </mxGeometry>
        </mxCell>
        <mxCell id="hdjzuRKUstXomJ2-e3ao-3" value="Touche Appuyer" style="shape=trapezoid;perimeter=trapezoidPerimeter;whiteSpace=wrap;html=1;fixedSize=1;rotation=0;size=10;" vertex="1" parent="1">
          <mxGeometry x="354" y="220" width="120" height="60" as="geometry" />
        </mxCell>
        <mxCell id="hdjzuRKUstXomJ2-e3ao-8" style="edgeStyle=orthogonalEdgeStyle;rounded=0;orthogonalLoop=1;jettySize=auto;html=1;exitX=0.5;exitY=1;exitDx=0;exitDy=0;" edge="1" parent="1" source="hdjzuRKUstXomJ2-e3ao-4" target="hdjzuRKUstXomJ2-e3ao-3">
          <mxGeometry relative="1" as="geometry" />
        </mxCell>
        <mxCell id="hdjzuRKUstXomJ2-e3ao-4" value="Attente" style="rounded=0;whiteSpace=wrap;html=1;" vertex="1" parent="1">
          <mxGeometry x="354" y="120" width="120" height="60" as="geometry" />
        </mxCell>
        <mxCell id="hdjzuRKUstXomJ2-e3ao-12" style="edgeStyle=orthogonalEdgeStyle;rounded=0;orthogonalLoop=1;jettySize=auto;html=1;exitX=0.5;exitY=1;exitDx=0;exitDy=0;entryX=0.5;entryY=0;entryDx=0;entryDy=0;" edge="1" parent="1" source="hdjzuRKUstXomJ2-e3ao-10" target="hdjzuRKUstXomJ2-e3ao-11">
          <mxGeometry relative="1" as="geometry" />
        </mxCell>
        <mxCell id="hdjzuRKUstXomJ2-e3ao-10" value="nb_lettre = nombre de lettre de la suite de caractère taper par l&#39;utilisateur" style="rounded=0;whiteSpace=wrap;html=1;" vertex="1" parent="1">
          <mxGeometry x="354" y="320" width="120" height="60" as="geometry" />
        </mxCell>
        <mxCell id="hdjzuRKUstXomJ2-e3ao-17" style="edgeStyle=orthogonalEdgeStyle;rounded=0;orthogonalLoop=1;jettySize=auto;html=1;exitX=1;exitY=0.5;exitDx=0;exitDy=0;entryX=1;entryY=0.5;entryDx=0;entryDy=0;" edge="1" parent="1" source="hdjzuRKUstXomJ2-e3ao-11" target="hdjzuRKUstXomJ2-e3ao-4">
          <mxGeometry relative="1" as="geometry">
            <Array as="points">
              <mxPoint x="560" y="470" />
              <mxPoint x="560" y="150" />
            </Array>
          </mxGeometry>
        </mxCell>
        <mxCell id="hdjzuRKUstXomJ2-e3ao-18" value="non" style="edgeLabel;html=1;align=center;verticalAlign=middle;resizable=0;points=[];" vertex="1" connectable="0" parent="hdjzuRKUstXomJ2-e3ao-17">
          <mxGeometry x="-0.8945" y="2" relative="1" as="geometry">
            <mxPoint as="offset" />
          </mxGeometry>
        </mxCell>
        <mxCell id="hdjzuRKUstXomJ2-e3ao-11" value="nb_lettre &amp;gt;= 3" style="rhombus;whiteSpace=wrap;html=1;" vertex="1" parent="1">
          <mxGeometry x="374" y="430" width="80" height="80" as="geometry" />
        </mxCell>
      </root>
    </mxGraphModel>
  </diagram>
</mxfile>
